<svg xmlns="http://www.w3.org/2000/svg" width="64" height="64" viewBox="0 0 64 64" id="cafe-stand"><path fill="#914747" d="M12,1l5,50H7Q9.505,25.995,12,1Z"></path><path fill="#833d3d" d="M17,51h1q-1.005,6-2,12H7L9.01,51Z"></path><path fill="#914747" d="M29,51q.495,6,1,12H21q-.495-6-1-12Z"></path><path fill="#833d3d" d="M43,51q-.495,6-1,12H33q.495-6,1-12Z"></path><path fill="#914747" d="M55 51q1.005 6 2 12H48q-1.005-6-2-12h9zM37.59 10.41c1.59 1.59 1.05 4.71-1.2 6.97-2.26 2.26-5.38 2.79-6.97 1.2z"></path><path fill="#a05454" d="M37.59,10.41l-8.17,8.17c-1.59-1.59-1.06-4.71,1.2-6.97C32.88,9.36,36,8.82,37.59,10.41Z"></path><path fill="#e6ecf4" d="M33.09,34.81a1.07,1.07,0,0,1-1.07,1.18l-5.86-.03a1.082,1.082,0,0,1-1.07-.97c-.32-3.27-.65-6.54-.97-9.81A1.069,1.069,0,0,1,25.19,24h5.84a1.082,1.082,0,0,1,1.07.97L32.3,27l.61,6Z"></path><path fill="#a05454" d="M52,1l5,50H17L12,1Zm.03,44Q50.005,25.5,48,6,32.505,6,17,6.01,18.95,25.51,20.89,45Z"></path><path fill="#4d5662" d="M48,6Q32.505,6,17,6.01,18.95006,25.51,20.89,45H52.03Q50.00495,25.5,48,6ZM32.02,35.99l-5.86-.03a1.082,1.082,0,0,1-1.07-.97c-.32-3.27-.65-6.54-.97-9.81A1.06907,1.06907,0,0,1,25.19,24h5.84a1.082,1.082,0,0,1,1.07.97L32.3,27l.61,6,.18,1.81A1.07,1.07,0,0,1,32.02,35.99Zm4.37-18.61c-2.26,2.26-5.38,2.79-6.97,1.2-1.59-1.59-1.06-4.71,1.2-6.97,2.26-2.25,5.38-2.79,6.97-1.2C39.18,12,38.64,15.12,36.39,17.38Z"></path><path fill="#d8e0eb" d="M34.46,34h-1.5498a1,1,0,1,1,0-2H34.46a2.0026,2.0026,0,0,0,2-2,1.74656,1.74656,0,0,0-.02441-.31445A1.99572,1.99572,0,0,0,34.46,28H32.2998a1,1,0,0,1,0-2H34.46a3.9842,3.9842,0,0,1,3.94629,3.34668A3.69429,3.69429,0,0,1,38.46,30,4.004,4.004,0,0,1,34.46,34Z"></path><path fill="#e6ecf4" d="M47 26H39a1 1 0 010-2h8a1 1 0 010 2zM47 31H40a1 1 0 010-2h7a1 1 0 010 2zM47 36H41a1 1 0 010-2h6a1 1 0 010 2z"></path><path fill="#636a74" d="M44,41H30a1,1,0,0,1,0-2H44a1,1,0,0,1,0,2Z"></path><path fill="#e6ecf4" d="M32.02344,36.99316h-.0127l-5.85937-.03125a2.0702,2.0702,0,0,1-2.05274-1.86816l-.97656-9.81445A2.075,2.075,0,0,1,25.18555,23h5.84472a2.06854,2.06854,0,0,1,2.0625,1.86523l.99317,9.84668v.001a2.07289,2.07289,0,0,1-2.0625,2.28027ZM25.1123,25.08008l.97657,9.81543,5.93261.09765,1.06934-.18066-.99512.10059-.99316-9.84668L25.18555,25l-1.06836.17969Z"></path></svg>